<svg xmlns="http://www.w3.org/2000/svg" xmlns:xlink="http://www.w3.org/1999/xlink" width="200" zoomAndPan="magnify" viewBox="0 0 150 60" height="80" preserveAspectRatio="xMidYMid meet" version="1.0"><defs><g/><clipPath id="f19b936020"><path d="M 9.898438 7.273438 L 55.648438 7.273438 L 55.648438 53.023438 L 9.898438 53.023438 Z M 9.898438 7.273438 " clip-rule="nonzero"/></clipPath><clipPath id="81f3c4eae9"><path d="M 14 7.273438 L 55.648438 7.273438 L 55.648438 49 L 14 49 Z M 14 7.273438 " clip-rule="nonzero"/></clipPath></defs><g clip-path="url(#f19b936020)"><path fill="#de6c2d" d="M 55.222656 30.398438 C 55.222656 31.136719 55.1875 31.878906 55.113281 32.613281 C 55.042969 33.351562 54.933594 34.085938 54.789062 34.8125 C 54.644531 35.539062 54.464844 36.253906 54.25 36.964844 C 54.035156 37.675781 53.785156 38.371094 53.5 39.054688 C 53.21875 39.742188 52.902344 40.410156 52.550781 41.0625 C 52.203125 41.714844 51.820312 42.351562 51.410156 42.96875 C 51 43.582031 50.558594 44.179688 50.085938 44.75 C 49.617188 45.324219 49.121094 45.871094 48.597656 46.394531 C 48.074219 46.921875 47.523438 47.417969 46.953125 47.886719 C 46.378906 48.359375 45.785156 48.796875 45.167969 49.210938 C 44.550781 49.621094 43.917969 50.003906 43.261719 50.351562 C 42.609375 50.703125 41.941406 51.019531 41.253906 51.300781 C 40.570312 51.585938 39.875 51.835938 39.164062 52.050781 C 38.457031 52.265625 37.738281 52.445312 37.011719 52.589844 C 36.285156 52.734375 35.550781 52.84375 34.816406 52.914062 C 34.078125 52.988281 33.339844 53.023438 32.597656 53.023438 C 31.855469 53.023438 31.117188 52.988281 30.378906 52.914062 C 29.640625 52.84375 28.910156 52.734375 28.183594 52.589844 C 27.457031 52.445312 26.738281 52.265625 26.027344 52.050781 C 25.320312 51.835938 24.621094 51.585938 23.9375 51.300781 C 23.253906 51.019531 22.585938 50.703125 21.929688 50.351562 C 21.277344 50.003906 20.640625 49.621094 20.027344 49.210938 C 19.410156 48.796875 18.816406 48.359375 18.242188 47.886719 C 17.667969 47.417969 17.121094 46.921875 16.597656 46.394531 C 16.074219 45.871094 15.574219 45.324219 15.105469 44.75 C 14.636719 44.179688 14.195312 43.582031 13.78125 42.96875 C 13.371094 42.351562 12.992188 41.714844 12.640625 41.0625 C 12.292969 40.410156 11.976562 39.742188 11.691406 39.054688 C 11.410156 38.371094 11.160156 37.675781 10.945312 36.964844 C 10.730469 36.253906 10.550781 35.539062 10.40625 34.8125 C 10.261719 34.085938 10.152344 33.351562 10.078125 32.613281 C 10.007812 31.878906 9.96875 31.136719 9.96875 30.398438 C 9.96875 29.65625 10.007812 28.917969 10.078125 28.179688 C 10.152344 27.441406 10.261719 26.710938 10.40625 25.980469 C 10.550781 25.253906 10.730469 24.539062 10.945312 23.828125 C 11.160156 23.121094 11.410156 22.421875 11.691406 21.738281 C 11.976562 21.054688 12.292969 20.382812 12.640625 19.730469 C 12.992188 19.078125 13.371094 18.441406 13.78125 17.824219 C 14.195312 17.210938 14.636719 16.613281 15.105469 16.042969 C 15.574219 15.46875 16.074219 14.921875 16.597656 14.398438 C 17.121094 13.871094 17.667969 13.375 18.242188 12.90625 C 18.816406 12.4375 19.410156 11.996094 20.027344 11.582031 C 20.640625 11.171875 21.277344 10.789062 21.929688 10.441406 C 22.585938 10.09375 23.253906 9.777344 23.9375 9.492188 C 24.621094 9.207031 25.320312 8.960938 26.027344 8.742188 C 26.738281 8.527344 27.457031 8.347656 28.183594 8.203125 C 28.910156 8.058594 29.640625 7.953125 30.378906 7.878906 C 31.117188 7.804688 31.855469 7.769531 32.597656 7.769531 C 33.339844 7.769531 34.078125 7.804688 34.816406 7.878906 C 35.550781 7.953125 36.285156 8.058594 37.011719 8.203125 C 37.738281 8.347656 38.457031 8.527344 39.164062 8.742188 C 39.875 8.960938 40.570312 9.207031 41.253906 9.492188 C 41.941406 9.777344 42.609375 10.09375 43.261719 10.441406 C 43.917969 10.789062 44.550781 11.171875 45.167969 11.582031 C 45.785156 11.996094 46.378906 12.4375 46.953125 12.90625 C 47.523438 13.375 48.074219 13.871094 48.597656 14.398438 C 49.121094 14.921875 49.617188 15.46875 50.085938 16.042969 C 50.558594 16.613281 51 17.210938 51.410156 17.824219 C 51.820312 18.441406 52.203125 19.078125 52.550781 19.730469 C 52.902344 20.382812 53.21875 21.054688 53.5 21.738281 C 53.785156 22.421875 54.035156 23.121094 54.25 23.828125 C 54.464844 24.539062 54.644531 25.253906 54.789062 25.980469 C 54.933594 26.710938 55.042969 27.441406 55.113281 28.179688 C 55.1875 28.917969 55.222656 29.65625 55.222656 30.398438 Z M 55.222656 30.398438 " fill-opacity="1" fill-rule="nonzero"/></g><g clip-path="url(#81f3c4eae9)"><path fill="#ffffff" d="M 47.976562 30.890625 L 47.976562 29.46875 L 50.996094 29.46875 C 50.929688 27.6875 50.605469 25.953125 50.03125 24.265625 C 49.453125 22.574219 48.648438 21.003906 47.613281 19.554688 C 49.828125 16.773438 55.546875 8.933594 55.019531 8.039062 C 54.558594 7.261719 46.382812 12.046875 42.917969 14.953125 C 41.46875 13.972656 39.914062 13.214844 38.246094 12.679688 C 36.582031 12.144531 34.875 11.851562 33.125 11.808594 L 33.125 14.632812 L 31.6875 14.632812 L 31.6875 11.808594 C 22.203125 12.269531 14.585938 19.953125 14.234375 29.46875 L 16.855469 29.46875 L 16.855469 30.890625 L 14.234375 30.890625 C 14.605469 40.421875 22.207031 48.089844 31.707031 48.550781 L 31.707031 45.738281 L 33.125 45.738281 L 33.125 48.550781 C 42.800781 48.277344 50.613281 40.535156 50.980469 30.890625 Z M 47.976562 30.890625 " fill-opacity="1" fill-rule="nonzero"/></g><path fill="#384158" d="M 31.238281 28.816406 L 24.53125 23.496094 L 22.199219 25.828125 L 32.757812 37.644531 C 37.480469 28.699219 45.769531 17.78125 52.304688 10.542969 C 48.503906 12.347656 36.898438 22.570312 31.242188 28.8125 Z M 31.238281 28.816406 " fill-opacity="1" fill-rule="evenodd"/><g fill="#384158" fill-opacity="1"><g transform="translate(61.835153, 32.917941)"><g><path d="M 6.875 0.28125 C 5.414062 0.28125 4.269531 -0.0703125 3.4375 -0.78125 C 2.613281 -1.5 2.203125 -2.6875 2.203125 -4.34375 L 2.203125 -10.0625 L 0.546875 -10.0625 L 0.546875 -13.984375 L 2.203125 -13.984375 L 2.203125 -17.53125 L 7.078125 -17.53125 L 7.078125 -13.984375 L 10.34375 -13.984375 L 10.34375 -10.0625 L 7.078125 -10.0625 L 7.078125 -5.296875 C 7.078125 -4.816406 7.1875 -4.460938 7.40625 -4.234375 C 7.632812 -4.015625 7.976562 -3.90625 8.4375 -3.90625 C 8.757812 -3.90625 9.078125 -3.945312 9.390625 -4.03125 C 9.703125 -4.113281 10.003906 -4.226562 10.296875 -4.375 L 10.296875 -0.546875 C 9.859375 -0.304688 9.347656 -0.109375 8.765625 0.046875 C 8.191406 0.203125 7.5625 0.28125 6.875 0.28125 Z M 6.875 0.28125 "/></g></g></g><g fill="#384158" fill-opacity="1"><g transform="translate(75.459365, 32.917941)"><g><path d="M 1.34375 -15.25 L 1.34375 -18.875 L 6.4375 -18.875 L 6.4375 -15.25 Z M 1.453125 0 L 1.453125 -13.984375 L 6.328125 -13.984375 L 6.328125 0 Z M 1.453125 0 "/></g></g></g><g fill="#384158" fill-opacity="1"><g transform="translate(85.722882, 32.917941)"><g><path d="M 1.3125 0 L 1.3125 -13.984375 L 6.234375 -13.984375 L 6.234375 -12.078125 C 6.679688 -12.660156 7.238281 -13.175781 7.90625 -13.625 C 8.582031 -14.070312 9.410156 -14.296875 10.390625 -14.296875 C 11.328125 -14.296875 12.140625 -14.097656 12.828125 -13.703125 C 13.515625 -13.304688 14.046875 -12.75 14.421875 -12.03125 C 15.023438 -12.71875 15.703125 -13.265625 16.453125 -13.671875 C 17.203125 -14.085938 18.085938 -14.296875 19.109375 -14.296875 C 20.585938 -14.296875 21.753906 -13.847656 22.609375 -12.953125 C 23.460938 -12.054688 23.890625 -10.800781 23.890625 -9.1875 L 23.890625 0 L 18.984375 0 L 18.984375 -7.609375 C 18.984375 -8.359375 18.8125 -8.9375 18.46875 -9.34375 C 18.125 -9.75 17.65625 -9.953125 17.0625 -9.953125 C 16.476562 -9.953125 15.992188 -9.75 15.609375 -9.34375 C 15.234375 -8.9375 15.046875 -8.359375 15.046875 -7.609375 L 15.046875 0 L 10.15625 0 L 10.15625 -7.609375 C 10.15625 -8.359375 9.976562 -8.9375 9.625 -9.34375 C 9.28125 -9.75 8.8125 -9.953125 8.21875 -9.953125 C 7.632812 -9.953125 7.15625 -9.75 6.78125 -9.34375 C 6.414062 -8.9375 6.234375 -8.359375 6.234375 -7.609375 L 6.234375 0 Z M 1.3125 0 "/></g></g></g><g fill="#384158" fill-opacity="1"><g transform="translate(113.306893, 32.917941)"><g><path d="M 8.28125 0.34375 C 7.1875 0.34375 6.175781 0.164062 5.25 -0.1875 C 4.320312 -0.539062 3.53125 -1.035156 2.875 -1.671875 C 2.21875 -2.316406 1.703125 -3.085938 1.328125 -3.984375 C 0.960938 -4.878906 0.78125 -5.863281 0.78125 -6.9375 L 0.78125 -6.984375 C 0.78125 -7.992188 0.953125 -8.945312 1.296875 -9.84375 C 1.640625 -10.75 2.125 -11.523438 2.75 -12.171875 C 3.382812 -12.828125 4.128906 -13.34375 4.984375 -13.71875 C 5.847656 -14.101562 6.796875 -14.296875 7.828125 -14.296875 C 9.023438 -14.296875 10.066406 -14.085938 10.953125 -13.671875 C 11.835938 -13.265625 12.566406 -12.710938 13.140625 -12.015625 C 13.722656 -11.316406 14.15625 -10.5 14.4375 -9.5625 C 14.726562 -8.632812 14.875 -7.660156 14.875 -6.640625 C 14.875 -6.484375 14.875 -6.316406 14.875 -6.140625 C 14.875 -5.972656 14.863281 -5.804688 14.84375 -5.640625 L 5.484375 -5.640625 C 5.671875 -4.878906 6.03125 -4.300781 6.5625 -3.90625 C 7.101562 -3.519531 7.75 -3.328125 8.5 -3.328125 C 9.09375 -3.328125 9.632812 -3.441406 10.125 -3.671875 C 10.613281 -3.910156 11.109375 -4.273438 11.609375 -4.765625 L 14.328125 -2.515625 C 13.648438 -1.660156 12.816406 -0.96875 11.828125 -0.4375 C 10.835938 0.0820312 9.65625 0.34375 8.28125 0.34375 Z M 5.40625 -8.140625 L 10.296875 -8.140625 C 10.203125 -8.921875 9.9375 -9.539062 9.5 -10 C 9.0625 -10.457031 8.503906 -10.6875 7.828125 -10.6875 C 7.191406 -10.6875 6.65625 -10.457031 6.21875 -10 C 5.789062 -9.539062 5.519531 -8.921875 5.40625 -8.140625 Z M 5.40625 -8.140625 "/></g></g></g><g fill="#de6c2d" fill-opacity="1"><g transform="translate(61.835153, 45.600004)"><g><path d="M 2.984375 0.109375 C 2.703125 0.109375 2.445312 0.078125 2.21875 0.015625 C 2 -0.046875 1.804688 -0.148438 1.640625 -0.296875 C 1.472656 -0.453125 1.34375 -0.648438 1.25 -0.890625 C 1.15625 -1.140625 1.109375 -1.453125 1.109375 -1.828125 L 1.109375 -4.875 L 0.34375 -4.875 L 0.34375 -6.4375 L 1.109375 -6.4375 L 1.109375 -8.078125 L 2.9375 -8.078125 L 2.9375 -6.4375 L 4.453125 -6.4375 L 4.453125 -4.875 L 2.9375 -4.875 L 2.9375 -2.125 C 2.9375 -1.707031 3.132812 -1.5 3.53125 -1.5 C 3.851562 -1.5 4.148438 -1.578125 4.421875 -1.734375 L 4.421875 -0.265625 C 4.234375 -0.148438 4.019531 -0.0625 3.78125 0 C 3.550781 0.0703125 3.285156 0.109375 2.984375 0.109375 Z M 2.984375 0.109375 "/></g></g></g><g fill="#de6c2d" fill-opacity="1"><g transform="translate(66.815163, 45.600004)"><g><path d="M 0.8125 -6.4375 L 2.640625 -6.4375 L 2.640625 -5.140625 C 2.828125 -5.578125 3.078125 -5.925781 3.390625 -6.1875 C 3.710938 -6.457031 4.144531 -6.578125 4.6875 -6.546875 L 4.6875 -4.640625 L 4.59375 -4.640625 C 3.988281 -4.640625 3.507812 -4.457031 3.15625 -4.09375 C 2.8125 -3.726562 2.640625 -3.15625 2.640625 -2.375 L 2.640625 0 L 0.8125 0 Z M 0.8125 -6.4375 "/></g></g></g><g fill="#de6c2d" fill-opacity="1"><g transform="translate(71.831177, 45.600004)"><g><path d="M 2.640625 0.125 C 2.335938 0.125 2.050781 0.0820312 1.78125 0 C 1.507812 -0.0820312 1.273438 -0.207031 1.078125 -0.375 C 0.878906 -0.550781 0.722656 -0.757812 0.609375 -1 C 0.492188 -1.25 0.4375 -1.53125 0.4375 -1.84375 L 0.4375 -1.875 C 0.4375 -2.226562 0.5 -2.53125 0.625 -2.78125 C 0.75 -3.039062 0.925781 -3.253906 1.15625 -3.421875 C 1.382812 -3.585938 1.65625 -3.710938 1.96875 -3.796875 C 2.289062 -3.878906 2.644531 -3.921875 3.03125 -3.921875 C 3.351562 -3.921875 3.632812 -3.894531 3.875 -3.84375 C 4.125 -3.800781 4.363281 -3.738281 4.59375 -3.65625 L 4.59375 -3.765625 C 4.59375 -4.148438 4.476562 -4.441406 4.25 -4.640625 C 4.019531 -4.835938 3.675781 -4.9375 3.21875 -4.9375 C 2.863281 -4.9375 2.550781 -4.90625 2.28125 -4.84375 C 2.019531 -4.789062 1.738281 -4.707031 1.4375 -4.59375 L 0.984375 -5.984375 C 1.335938 -6.140625 1.703125 -6.265625 2.078125 -6.359375 C 2.460938 -6.453125 2.929688 -6.5 3.484375 -6.5 C 3.984375 -6.5 4.410156 -6.4375 4.765625 -6.3125 C 5.117188 -6.1875 5.414062 -6.007812 5.65625 -5.78125 C 5.894531 -5.539062 6.066406 -5.242188 6.171875 -4.890625 C 6.285156 -4.546875 6.34375 -4.160156 6.34375 -3.734375 L 6.34375 0 L 4.578125 0 L 4.578125 -0.703125 C 4.359375 -0.453125 4.09375 -0.25 3.78125 -0.09375 C 3.46875 0.0507812 3.085938 0.125 2.640625 0.125 Z M 3.1875 -1.140625 C 3.625 -1.140625 3.972656 -1.242188 4.234375 -1.453125 C 4.492188 -1.660156 4.625 -1.929688 4.625 -2.265625 L 4.625 -2.59375 C 4.457031 -2.664062 4.273438 -2.722656 4.078125 -2.765625 C 3.890625 -2.804688 3.679688 -2.828125 3.453125 -2.828125 C 3.066406 -2.828125 2.757812 -2.75 2.53125 -2.59375 C 2.3125 -2.445312 2.203125 -2.226562 2.203125 -1.9375 L 2.203125 -1.921875 C 2.203125 -1.671875 2.289062 -1.476562 2.46875 -1.34375 C 2.65625 -1.207031 2.894531 -1.140625 3.1875 -1.140625 Z M 3.1875 -1.140625 "/></g></g></g><g fill="#de6c2d" fill-opacity="1"><g transform="translate(78.935189, 45.600004)"><g><path d="M 3.859375 0.140625 C 3.367188 0.140625 2.914062 0.0507812 2.5 -0.125 C 2.09375 -0.300781 1.742188 -0.535156 1.453125 -0.828125 C 1.160156 -1.128906 0.925781 -1.484375 0.75 -1.890625 C 0.582031 -2.296875 0.5 -2.726562 0.5 -3.1875 L 0.5 -3.203125 C 0.5 -3.660156 0.582031 -4.09375 0.75 -4.5 C 0.925781 -4.90625 1.160156 -5.257812 1.453125 -5.5625 C 1.742188 -5.875 2.09375 -6.113281 2.5 -6.28125 C 2.914062 -6.457031 3.375 -6.546875 3.875 -6.546875 C 4.476562 -6.546875 4.976562 -6.445312 5.375 -6.25 C 5.78125 -6.0625 6.132812 -5.800781 6.4375 -5.46875 L 5.328125 -4.265625 C 5.117188 -4.484375 4.90625 -4.65625 4.6875 -4.78125 C 4.46875 -4.914062 4.191406 -4.984375 3.859375 -4.984375 C 3.628906 -4.984375 3.421875 -4.9375 3.234375 -4.84375 C 3.046875 -4.75 2.878906 -4.617188 2.734375 -4.453125 C 2.597656 -4.296875 2.488281 -4.113281 2.40625 -3.90625 C 2.332031 -3.695312 2.296875 -3.472656 2.296875 -3.234375 L 2.296875 -3.203125 C 2.296875 -2.953125 2.332031 -2.71875 2.40625 -2.5 C 2.488281 -2.289062 2.601562 -2.101562 2.75 -1.9375 C 2.894531 -1.78125 3.066406 -1.65625 3.265625 -1.5625 C 3.460938 -1.46875 3.6875 -1.421875 3.9375 -1.421875 C 4.238281 -1.421875 4.503906 -1.484375 4.734375 -1.609375 C 4.960938 -1.734375 5.1875 -1.898438 5.40625 -2.109375 L 6.484375 -1.03125 C 6.171875 -0.6875 5.8125 -0.40625 5.40625 -0.1875 C 5.007812 0.03125 4.492188 0.140625 3.859375 0.140625 Z M 3.859375 0.140625 "/></g></g></g><g fill="#de6c2d" fill-opacity="1"><g transform="translate(85.787201, 45.600004)"><g><path d="M 0.8125 -8.765625 L 2.640625 -8.765625 L 2.640625 -4.09375 L 4.78125 -6.4375 L 6.953125 -6.4375 L 4.515625 -3.90625 L 7.046875 0 L 4.9375 0 L 3.28125 -2.640625 L 2.640625 -1.953125 L 2.640625 0 L 0.8125 0 Z M 0.8125 -8.765625 "/></g></g></g><g fill="#de6c2d" fill-opacity="1"><g transform="translate(92.891212, 45.600004)"><g><path d="M 3.859375 0.140625 C 3.378906 0.140625 2.929688 0.0625 2.515625 -0.09375 C 2.109375 -0.257812 1.753906 -0.488281 1.453125 -0.78125 C 1.160156 -1.070312 0.925781 -1.421875 0.75 -1.828125 C 0.582031 -2.234375 0.5 -2.6875 0.5 -3.1875 L 0.5 -3.203125 C 0.5 -3.660156 0.578125 -4.09375 0.734375 -4.5 C 0.890625 -4.90625 1.109375 -5.257812 1.390625 -5.5625 C 1.671875 -5.875 2.003906 -6.113281 2.390625 -6.28125 C 2.773438 -6.457031 3.207031 -6.546875 3.6875 -6.546875 C 4.21875 -6.546875 4.675781 -6.445312 5.0625 -6.25 C 5.457031 -6.0625 5.785156 -5.804688 6.046875 -5.484375 C 6.304688 -5.160156 6.5 -4.789062 6.625 -4.375 C 6.75 -3.957031 6.8125 -3.519531 6.8125 -3.0625 C 6.8125 -2.988281 6.804688 -2.910156 6.796875 -2.828125 C 6.796875 -2.753906 6.796875 -2.671875 6.796875 -2.578125 L 2.3125 -2.578125 C 2.40625 -2.160156 2.585938 -1.84375 2.859375 -1.625 C 3.140625 -1.414062 3.484375 -1.3125 3.890625 -1.3125 C 4.191406 -1.3125 4.460938 -1.363281 4.703125 -1.46875 C 4.941406 -1.570312 5.191406 -1.742188 5.453125 -1.984375 L 6.484375 -1.0625 C 6.179688 -0.675781 5.8125 -0.378906 5.375 -0.171875 C 4.945312 0.0351562 4.441406 0.140625 3.859375 0.140625 Z M 5.046875 -3.71875 C 4.984375 -4.125 4.835938 -4.453125 4.609375 -4.703125 C 4.378906 -4.960938 4.070312 -5.09375 3.6875 -5.09375 C 3.300781 -5.09375 2.988281 -4.96875 2.75 -4.71875 C 2.519531 -4.46875 2.367188 -4.132812 2.296875 -3.71875 Z M 5.046875 -3.71875 "/></g></g></g><g fill="#de6c2d" fill-opacity="1"><g transform="translate(100.247222, 45.600004)"><g><path d="M 0.8125 -6.4375 L 2.640625 -6.4375 L 2.640625 -5.140625 C 2.828125 -5.578125 3.078125 -5.925781 3.390625 -6.1875 C 3.710938 -6.457031 4.144531 -6.578125 4.6875 -6.546875 L 4.6875 -4.640625 L 4.59375 -4.640625 C 3.988281 -4.640625 3.507812 -4.457031 3.15625 -4.09375 C 2.8125 -3.726562 2.640625 -3.15625 2.640625 -2.375 L 2.640625 0 L 0.8125 0 Z M 0.8125 -6.4375 "/></g></g></g></svg>