<svg xmlns="http://www.w3.org/2000/svg" xmlns:xlink="http://www.w3.org/1999/xlink" width="132" zoomAndPan="magnify" viewBox="0 0 98.88 98.999996" height="132" preserveAspectRatio="xMidYMid meet" version="1.0"><defs><clipPath id="c2a1636a45"><path d="M 5 5.003906 L 94 5.003906 L 94 94.144531 L 5 94.144531 Z M 5 5.003906 " clip-rule="nonzero"/></clipPath></defs><g clip-path="url(#c2a1636a45)"><path fill="#de6c2d" d="M 93.253906 50.054688 C 93.253906 51.5 93.183594 52.941406 93.042969 54.378906 C 92.902344 55.8125 92.691406 57.242188 92.410156 58.65625 C 92.125 60.074219 91.777344 61.472656 91.355469 62.855469 C 90.9375 64.234375 90.453125 65.59375 89.898438 66.925781 C 89.347656 68.261719 88.730469 69.566406 88.050781 70.839844 C 87.367188 72.113281 86.628906 73.347656 85.824219 74.550781 C 85.023438 75.75 84.164062 76.910156 83.25 78.023438 C 82.332031 79.140625 81.363281 80.210938 80.34375 81.230469 C 79.320312 82.25 78.253906 83.21875 77.136719 84.136719 C 76.019531 85.050781 74.863281 85.910156 73.660156 86.714844 C 72.460938 87.515625 71.222656 88.257812 69.949219 88.9375 C 68.675781 89.617188 67.375 90.234375 66.039062 90.789062 C 64.707031 91.339844 63.347656 91.824219 61.964844 92.246094 C 60.585938 92.664062 59.183594 93.015625 57.769531 93.296875 C 56.351562 93.578125 54.925781 93.789062 53.488281 93.929688 C 52.050781 94.074219 50.613281 94.144531 49.167969 94.144531 C 47.722656 94.144531 46.285156 94.074219 44.847656 93.929688 C 43.410156 93.789062 41.984375 93.578125 40.566406 93.296875 C 39.152344 93.015625 37.75 92.664062 36.371094 92.246094 C 34.988281 91.824219 33.628906 91.339844 32.296875 90.789062 C 30.960938 90.234375 29.660156 89.617188 28.386719 88.9375 C 27.113281 88.257812 25.875 87.515625 24.675781 86.714844 C 23.472656 85.910156 22.316406 85.050781 21.199219 84.136719 C 20.082031 83.21875 19.015625 82.25 17.992188 81.230469 C 16.972656 80.210938 16.003906 79.140625 15.085938 78.023438 C 14.171875 76.910156 13.3125 75.75 12.511719 74.550781 C 11.707031 73.347656 10.964844 72.113281 10.285156 70.839844 C 9.605469 69.566406 8.988281 68.261719 8.4375 66.925781 C 7.882812 65.59375 7.398438 64.234375 6.980469 62.855469 C 6.558594 61.472656 6.207031 60.074219 5.925781 58.65625 C 5.644531 57.242188 5.433594 55.8125 5.292969 54.378906 C 5.152344 52.941406 5.082031 51.5 5.082031 50.054688 C 5.082031 48.613281 5.152344 47.171875 5.292969 45.734375 C 5.433594 44.296875 5.644531 42.871094 5.925781 41.453125 C 6.207031 40.039062 6.558594 38.640625 6.980469 37.257812 C 7.398438 35.875 7.882812 34.519531 8.4375 33.183594 C 8.988281 31.851562 9.605469 30.546875 10.285156 29.273438 C 10.964844 28 11.707031 26.761719 12.511719 25.5625 C 13.3125 24.359375 14.171875 23.203125 15.085938 22.085938 C 16.003906 20.96875 16.972656 19.902344 17.992188 18.882812 C 19.015625 17.859375 20.082031 16.890625 21.199219 15.976562 C 22.316406 15.058594 23.472656 14.199219 24.675781 13.398438 C 25.875 12.597656 27.113281 11.855469 28.386719 11.171875 C 29.660156 10.492188 30.960938 9.875 32.296875 9.324219 C 33.628906 8.769531 34.988281 8.285156 36.371094 7.867188 C 37.75 7.445312 39.152344 7.097656 40.566406 6.816406 C 41.984375 6.535156 43.410156 6.320312 44.847656 6.179688 C 46.285156 6.039062 47.722656 5.96875 49.167969 5.96875 C 50.613281 5.96875 52.050781 6.039062 53.488281 6.179688 C 54.925781 6.320312 56.351562 6.535156 57.769531 6.816406 C 59.183594 7.097656 60.585938 7.445312 61.964844 7.867188 C 63.347656 8.285156 64.707031 8.769531 66.039062 9.324219 C 67.375 9.875 68.675781 10.492188 69.949219 11.171875 C 71.222656 11.855469 72.460938 12.597656 73.660156 13.398438 C 74.863281 14.199219 76.019531 15.058594 77.136719 15.976562 C 78.253906 16.890625 79.320312 17.859375 80.34375 18.882812 C 81.363281 19.902344 82.332031 20.96875 83.25 22.085938 C 84.164062 23.203125 85.023438 24.359375 85.824219 25.5625 C 86.628906 26.761719 87.367188 28 88.050781 29.273438 C 88.730469 30.546875 89.347656 31.851562 89.898438 33.183594 C 90.453125 34.519531 90.9375 35.875 91.355469 37.257812 C 91.777344 38.640625 92.125 40.039062 92.410156 41.453125 C 92.691406 42.871094 92.902344 44.296875 93.042969 45.734375 C 93.183594 47.171875 93.253906 48.613281 93.253906 50.054688 Z M 93.253906 50.054688 " fill-opacity="1" fill-rule="nonzero"/></g><path fill="#ffffff" d="M 79.136719 51.019531 L 79.136719 48.25 L 85.019531 48.25 C 84.886719 44.777344 84.261719 41.394531 83.136719 38.105469 C 82.015625 34.816406 80.441406 31.757812 78.421875 28.929688 C 82.746094 23.511719 93.886719 8.238281 92.859375 6.496094 C 91.957031 4.976562 76.027344 14.300781 69.273438 19.96875 C 66.453125 18.054688 63.421875 16.574219 60.175781 15.53125 C 56.933594 14.488281 53.605469 13.925781 50.199219 13.835938 L 50.199219 19.34375 L 47.398438 19.34375 L 47.398438 13.835938 C 28.917969 14.738281 14.078125 29.703125 13.394531 48.246094 L 18.496094 48.246094 L 18.496094 51.015625 L 13.394531 51.015625 C 14.113281 69.585938 28.921875 84.527344 47.429688 85.425781 L 47.429688 79.953125 L 50.199219 79.953125 L 50.199219 85.425781 C 69.050781 84.898438 84.269531 69.804688 84.988281 51.015625 Z M 79.136719 51.019531 " fill-opacity="1" fill-rule="nonzero"/><path fill="#384158" d="M 46.519531 46.972656 L 33.453125 36.609375 L 28.910156 41.152344 L 49.480469 64.175781 C 58.683594 46.75 74.835938 25.472656 87.566406 11.375 C 80.160156 14.890625 57.546875 34.804688 46.527344 46.96875 Z M 46.519531 46.972656 " fill-opacity="1" fill-rule="evenodd"/></svg>